<?xml version="1.0" standalone="no"?>
<!DOCTYPE svg PUBLIC "-//W3C//DTD SVG 20010904//EN"
 "http://www.w3.org/TR/2001/REC-SVG-20010904/DTD/svg10.dtd">
<svg version="1.0" xmlns="http://www.w3.org/2000/svg"
 width="563.000000pt" height="375.000000pt" viewBox="0 0 563.000000 375.000000"
 preserveAspectRatio="xMidYMid meet">

<g transform="translate(0.000000,375.000000) scale(0.100000,-0.100000)"
fill="#000000" stroke="none">
<path d="M1473 3027 c3 -7 10 -11 16 -9 6 1 11 -5 11 -13 0 -8 7 -15 16 -15
11 0 14 -5 10 -16 -5 -14 -1 -16 34 -10 24 4 40 2 40 -4 0 -5 -4 -10 -10 -10
-5 0 -10 -11 -10 -25 0 -14 5 -25 10 -25 6 0 10 7 10 15 0 8 5 15 10 15 6 0
10 6 10 14 0 8 8 17 17 20 15 6 15 8 3 16 -8 6 -23 10 -33 10 -10 0 -25 7 -34
15 -8 8 -19 12 -25 9 -7 -4 -8 -2 -4 4 4 7 4 12 -1 13 -66 7 -74 7 -70 -4z"/>
<path d="M3194 3025 c-10 -8 -28 -15 -39 -16 -16 -1 -17 -2 -3 -6 10 -2 15
-10 11 -19 -4 -10 3 -14 27 -14 25 0 31 -3 26 -16 -3 -9 -6 -17 -6 -18 0 -2
-11 -1 -25 2 -15 2 -25 0 -25 -8 0 -14 -42 -9 -47 6 -2 7 6 10 22 7 29 -6 31
4 7 33 l-17 21 -41 -21 c-22 -12 -39 -27 -36 -34 2 -6 -1 -12 -7 -12 -6 0 -11
4 -11 9 0 5 -9 11 -20 14 -13 3 -21 -1 -25 -14 -4 -11 -11 -17 -16 -14 -5 4
-9 2 -9 -3 0 -6 -9 -8 -20 -5 -12 3 -20 0 -20 -6 0 -7 -4 -10 -10 -6 -9 5 -49
-12 -60 -26 -3 -4 -16 -6 -30 -6 -31 2 -110 -29 -110 -43 0 -16 49 -31 68 -21
17 9 24 11 40 11 5 0 14 12 21 27 9 20 15 23 23 15 7 -7 27 -12 44 -12 41 0
47 -10 21 -35 -11 -11 -17 -14 -13 -7 5 9 -5 12 -38 12 -56 0 -66 -15 -59 -86
3 -29 1 -66 -5 -82 -14 -40 -2 -52 48 -52 24 0 27 -28 4 -37 -15 -6 -15 -8 2
-20 22 -16 54 -17 54 -2 0 7 10 9 25 7 13 -3 26 -1 27 4 3 9 27 16 61 17 10 1
15 6 12 11 -7 11 -5 12 75 30 110 24 110 24 112 115 3 150 -2 299 -10 307 -4
4 -17 1 -28 -7z m3 -121 c-3 -3 -12 -4 -19 -1 -8 3 -5 6 6 6 11 1 17 -2 13 -5z
m-177 -19 c0 -8 -4 -15 -10 -15 -5 0 -10 7 -10 15 0 8 5 15 10 15 6 0 10 -7
10 -15z m170 -55 c0 -22 -4 -40 -10 -40 -5 0 -10 18 -10 40 0 22 5 40 10 40 6
0 10 -18 10 -40z m-210 26 c0 -3 -4 -8 -10 -11 -5 -3 -10 -1 -10 4 0 6 5 11
10 11 6 0 10 -2 10 -4z m190 -156 c0 -5 -4 -10 -9 -10 -6 0 -13 5 -16 10 -3 6
1 10 9 10 9 0 16 -4 16 -10z m27 -36 c-3 -3 -12 -4 -19 -1 -8 3 -5 6 6 6 11 1
17 -2 13 -5z m-204 -41 c-13 -2 -23 -10 -23 -17 0 -8 -10 -11 -30 -8 -47 7
-19 32 34 31 23 -1 31 -4 19 -6z"/>
<path d="M1479 2974 c-6 -36 -1 -56 12 -48 5 3 10 -21 11 -53 l1 -58 7 65 c4
36 3 72 -1 80 -5 8 -9 11 -10 5 0 -5 -4 1 -8 15 -7 25 -8 25 -12 -6z"/>
<path d="M3363 2988 c-2 -5 1 -8 7 -8 6 0 2 -10 -9 -21 -15 -16 -18 -30 -14
-53 8 -45 22 -55 18 -12 -2 26 1 36 11 36 8 0 17 7 20 15 7 17 65 20 99 5 17
-7 16 -9 -10 -9 -53 -2 -73 -11 -72 -34 0 -12 -3 -71 -7 -132 -7 -101 -6 -108
8 -91 16 19 16 19 16 -2 0 -12 -4 -22 -10 -22 -12 0 -13 -37 -1 -44 11 -7 24
37 25 84 1 30 4 35 24 33 18 -2 24 3 29 27 6 32 21 38 41 18 9 -9 12 -9 12 0
0 7 7 12 15 12 11 0 15 -11 15 -40 0 -22 -4 -40 -9 -40 -4 0 -6 -11 -3 -25 3
-20 0 -25 -16 -25 -11 0 -23 6 -25 13 -4 9 -8 9 -15 -1 -5 -8 -22 -15 -36 -15
-25 -2 -27 -4 -21 -37 8 -45 36 -84 64 -88 11 -2 21 -7 21 -11 0 -3 51 -6 114
-6 63 0 111 4 107 8 -5 5 -45 7 -89 5 l-81 -3 1 55 c0 42 2 50 9 33 5 -15 16
-23 31 -22 13 0 17 3 10 6 -10 4 -9 8 5 19 14 10 74 13 277 14 l259 0 -6 -42
c-3 -24 -2 -52 3 -63 12 -32 2 -45 -27 -34 -13 5 -31 9 -39 9 -21 0 -17 -21 5
-27 11 -3 22 -12 25 -20 3 -8 10 -11 16 -8 5 3 10 -1 10 -10 0 -9 6 -15 13
-12 6 2 12 14 12 27 0 13 7 26 14 28 8 3 11 0 7 -6 -3 -6 -2 -13 3 -16 5 -3
11 1 15 9 4 12 28 15 125 15 106 0 120 2 123 18 3 9 5 -10 6 -43 4 -110 3
-112 -86 -117 -63 -4 -79 -2 -89 11 -11 15 -12 15 -13 0 0 -9 -7 -19 -15 -23
-19 -7 -55 47 -55 82 0 12 -4 22 -10 22 -12 0 -9 -53 3 -61 6 -4 5 -20 -2 -39
-12 -37 -14 -89 -4 -116 6 -16 7 -16 15 2 5 13 7 6 5 -23 -1 -23 1 -39 5 -37
5 3 8 12 8 21 0 9 3 13 6 10 4 -3 14 -2 23 3 33 17 46 -5 46 -79 l0 -69 -70
-4 c-81 -6 -93 -2 -68 19 16 13 12 14 -42 9 -33 -3 -61 -9 -63 -15 -2 -5 -15
-6 -30 -3 -15 4 -161 6 -324 4 -273 -3 -298 -4 -298 -20 0 -14 12 -17 66 -20
37 -1 71 -5 77 -9 6 -3 7 -31 4 -69 -4 -43 -2 -77 8 -104 8 -22 10 -40 6 -40
-15 0 -21 -45 -11 -80 6 -22 6 -48 -1 -77 -11 -43 -29 -59 -29 -25 0 13 -2 14
-9 3 -7 -11 -9 -11 -14 0 -4 10 -6 9 -6 -3 -1 -14 -10 -18 -46 -18 l-45 0 -1
-37 c-2 -86 -17 -87 -18 -1 -1 88 6 129 19 109 3 -7 5 9 4 35 -2 26 -8 50 -14
54 -9 5 -10 47 -6 153 l6 145 -25 4 c-28 6 -27 14 -26 -117 1 -49 -3 -106 -8
-126 -4 -21 -5 -43 0 -50 5 -8 9 4 12 31 l4 45 1 -47 c1 -27 -2 -48 -8 -48 -5
0 -10 -22 -10 -50 0 -27 5 -50 10 -50 6 0 10 -7 10 -15 0 -8 -4 -15 -9 -15 -5
0 -8 -114 -6 -270 2 -196 -1 -276 -10 -293 -9 -17 -9 -26 0 -34 13 -12 97 -14
89 -2 -5 8 1 10 45 13 8 1 16 7 19 14 2 6 7 10 12 7 4 -3 6 4 3 15 -6 22 12
28 20 8 4 -10 6 -10 6 -1 1 17 -18 26 -32 16 -11 -8 -86 -33 -100 -33 -2 0 -8
11 -11 24 -3 14 -12 26 -19 29 -6 2 -5 3 4 2 9 -1 24 2 33 7 10 6 16 5 16 -2
0 -7 8 -9 21 -5 12 4 29 8 38 10 10 1 15 11 14 28 -1 19 2 24 13 20 7 -3 17 2
20 11 3 9 10 16 15 16 15 0 10 -37 -6 -50 -8 -7 -15 -19 -15 -27 0 -9 6 -13
15 -9 10 3 15 -1 15 -11 0 -14 2 -14 15 3 8 10 15 29 15 40 0 12 7 25 16 28 9
3 13 13 10 23 -8 30 -16 89 -10 76 14 -30 19 -7 22 90 1 56 4 129 6 162 4 45
3 51 -3 25 -6 -25 -8 -8 -7 60 0 52 -3 106 -8 119 -7 20 -6 23 9 18 11 -5 15
-3 12 5 -2 7 2 21 11 30 11 13 19 15 33 7 14 -7 19 -6 19 2 0 9 66 11 268 7
199 -4 278 -2 304 7 21 7 42 9 50 4 17 -11 41 -11 34 0 -3 5 8 11 24 15 25 5
30 10 30 36 0 19 5 30 14 30 8 0 16 7 20 15 6 16 -5 18 -41 9 -13 -4 -20 -10
-17 -15 3 -5 -2 -9 -10 -9 -8 0 -27 -5 -43 -12 -15 -6 -38 -10 -50 -9 -11 1
-24 -3 -28 -9 -5 -8 -11 -8 -21 1 -25 21 -15 31 24 24 31 -5 43 -2 66 19 26
21 28 29 24 69 -6 50 -10 48 53 16 20 -10 21 -9 15 15 -6 24 -4 26 24 26 20 0
30 5 30 15 0 8 5 15 10 15 6 0 10 -7 10 -15 0 -8 -5 -15 -11 -15 -6 0 -9 -9
-6 -20 3 -12 -1 -24 -11 -29 -14 -8 -15 -14 -6 -28 13 -20 50 -25 47 -6 -2 7
3 12 10 10 7 -1 12 8 11 21 0 12 5 22 13 22 7 0 13 3 14 8 4 37 7 52 18 84 7
22 14 112 16 225 2 103 4 199 4 213 0 14 -1 39 -3 55 -2 17 -4 37 -5 45 -1 12
-3 13 -10 1 -14 -22 -81 7 -81 35 0 12 -5 24 -10 26 -6 2 -11 14 -11 28 1 14
1 36 1 50 0 39 18 11 25 -40 5 -40 25 -70 46 -70 14 0 17 55 3 74 -8 11 -14
29 -14 39 0 10 -3 16 -7 14 -5 -3 -19 13 -33 35 -16 24 -31 38 -40 35 -10 -2
-16 3 -17 13 -2 20 -42 64 -67 73 -9 4 -15 12 -14 19 2 9 -9 12 -37 10 -27 -2
-36 0 -26 7 10 6 -10 11 -60 15 -111 9 -870 12 -876 4z m730 -15 c-7 -2 -21
-2 -30 0 -10 3 -4 5 12 5 17 0 24 -2 18 -5z m-7 -35 c-9 -5 -26 -6 -39 -2 -21
7 -20 8 8 14 36 8 54 1 31 -12z m184 12 c0 -5 -8 -10 -17 -10 -15 0 -16 2 -3
10 19 12 20 12 20 0z m105 -106 c14 -21 22 -25 45 -21 24 5 27 3 23 -13 -4
-15 -14 -20 -39 -20 -19 0 -34 5 -34 11 0 5 -5 7 -12 3 -6 -4 -8 -3 -4 4 3 6
1 14 -6 19 -17 11 -19 43 -3 43 7 0 20 -12 30 -26z m-841 -199 c3 -9 0 -15 -9
-15 -8 0 -15 7 -15 15 0 8 4 15 9 15 5 0 11 -7 15 -15z m28 -27 c9 -23 -3 -38
-28 -38 -29 0 -34 36 -6 43 28 8 30 7 34 -5z m999 -100 c0 -18 2 -47 4 -63 3
-17 0 -44 -4 -60 -9 -27 -9 -26 -10 18 -1 27 -6 57 -12 69 -12 22 -4 68 11 68
6 0 10 -15 11 -32z m-10 -218 c-6 -3 -12 -32 -13 -64 -2 -73 -18 -85 -19 -14
-2 70 -1 76 19 99 15 18 17 18 20 3 2 -9 -1 -20 -7 -24z m-311 -50 c0 -5 -2
-10 -4 -10 -3 0 -8 5 -11 10 -3 6 -1 10 4 10 6 0 11 -4 11 -10z m319 -87 c0
-10 2 -34 4 -53 2 -19 1 -43 -3 -54 -6 -16 -8 -15 -18 10 -6 16 -10 40 -9 54
4 25 16 60 22 60 2 0 4 -8 4 -17z m18 -5 c-3 -8 -6 -5 -6 6 -1 11 2 17 5 13 3
-3 4 -12 1 -19z m-90 -65 c-3 -10 -5 -4 -5 12 0 17 2 24 5 18 2 -7 2 -21 0
-30z m-330 -65 c-3 -8 -6 -5 -6 6 -1 11 2 17 5 13 3 -3 4 -12 1 -19z m-446
-158 c10 0 19 -4 19 -10 0 -13 -77 -13 -84 -1 -7 11 14 21 32 15 8 -2 22 -4
33 -4z m509 -30 c0 -5 -7 -10 -15 -10 -8 0 -15 5 -15 10 0 6 7 10 15 10 8 0
15 -4 15 -10z m-115 -20 c4 -7 -55 -10 -169 -10 -106 0 -177 4 -181 10 -4 7
55 10 169 10 106 0 177 -4 181 -10z m-479 -292 c-1 -97 -5 -161 -10 -158 -16
8 -12 320 3 320 5 0 8 -73 7 -162z m-3 -210 c-8 -46 -13 -48 -13 -5 0 21 4 37
10 37 5 0 7 -14 3 -32z m-101 -52 c5 -8 8 -7 8 2 0 6 9 12 20 12 23 0 26 -10
8 -28 -10 -10 -10 -15 2 -22 13 -9 11 -13 -10 -30 -14 -11 -30 -20 -37 -20 -6
0 -19 -7 -28 -16 -8 -9 -22 -13 -30 -10 -8 3 -21 -1 -29 -9 -18 -18 -30 -20
-19 -2 9 13 9 18 12 93 l1 52 48 -6 c26 -3 50 -10 54 -16z m80 -40 c-2 -10 2
-24 8 -31 9 -11 7 -12 -9 -8 -14 4 -19 13 -19 34 1 17 6 28 12 26 6 -2 10 -12
8 -21z"/>
<path d="M1655 2949 c4 -6 -2 -13 -14 -16 -19 -5 -21 -13 -21 -73 0 -63 2 -67
27 -79 19 -9 29 -9 31 -2 2 6 31 11 69 11 56 0 66 3 70 19 3 11 19 25 36 32
18 7 40 19 49 27 16 14 20 13 41 -10 27 -29 114 -75 124 -65 3 4 1 7 -6 7 -15
0 -41 25 -41 39 0 6 -10 11 -22 11 -12 0 -30 8 -40 17 -12 11 -51 21 -106 27
-69 9 -86 14 -85 26 2 11 -11 20 -42 28 -56 15 -78 15 -70 1z m169 -74 c-4 -8
-13 -15 -20 -15 -12 0 -12 3 -2 15 17 19 29 19 22 0z"/>
<path d="M1550 2939 c0 -5 5 -7 10 -4 6 3 10 8 10 11 0 2 -4 4 -10 4 -5 0 -10
-5 -10 -11z"/>
<path d="M1593 2840 c0 -25 2 -35 4 -22 2 12 2 32 0 45 -2 12 -4 2 -4 -23z"/>
<path d="M3377 2851 c-4 -17 -3 -21 5 -13 5 5 8 16 6 23 -3 8 -7 3 -11 -10z"/>
<path d="M1909 2820 c-7 -5 -26 -6 -42 -3 -26 5 -28 3 -25 -17 2 -18 12 -26
38 -33 23 -6 36 -5 38 2 2 6 15 11 29 11 19 0 23 3 15 13 -6 6 -10 16 -9 21 3
12 -27 16 -44 6z"/>
<path d="M2680 2810 c0 -5 -6 -7 -14 -4 -13 5 -26 -13 -33 -49 -2 -12 1 -16 8
-11 8 5 10 -1 7 -19 -3 -15 -1 -24 3 -21 5 3 9 0 9 -5 0 -6 -5 -11 -11 -11 -5
0 -8 -3 -6 -7 3 -5 1 -19 -5 -32 -8 -23 -10 -23 -25 -9 -13 14 -14 22 -4 49
13 36 13 36 -13 41 -15 2 -21 -7 -31 -47 -7 -27 -11 -54 -8 -59 4 -5 1 -6 -4
-3 -6 4 -16 -8 -23 -26 -7 -17 -16 -41 -20 -52 -19 -45 -30 -90 -30 -117 0
-16 -4 -38 -10 -48 -5 -10 -12 -45 -14 -77 -3 -32 -8 -68 -12 -80 -5 -17 -2
-23 10 -23 10 0 16 9 16 25 0 16 6 25 15 25 8 0 15 4 15 9 0 5 3 16 6 24 3 9
-3 16 -15 20 -13 3 -21 13 -21 26 0 21 1 21 30 6 40 -21 50 -19 50 11 0 17 4
23 12 18 8 -5 9 -2 5 9 -3 10 -2 17 3 17 5 0 34 16 64 35 30 19 72 37 92 40
40 5 56 15 36 22 -30 11 -42 36 -44 91 l-1 57 -7 -45 -7 -45 -1 57 c-1 31 -6
60 -12 63 -15 9 -12 23 10 42 14 12 20 30 20 57 0 37 -11 44 -16 10 -6 -37
-13 -46 -27 -32 -16 15 -11 44 9 52 16 6 19 26 4 26 -5 0 -10 -4 -10 -10z
m-128 -348 c14 -28 13 -62 -2 -62 -9 0 -14 14 -25 69 -8 39 6 36 27 -7z m88
14 c0 -8 -60 -12 -72 -4 -8 4 4 8 30 8 23 0 42 -2 42 -4z m-102 -97 c-19 -13
-35 -11 -35 4 0 9 9 12 25 9 17 -3 20 -7 10 -13z"/>
<path d="M2760 2790 c-24 -8 -23 -8 8 -9 17 -1 32 4 32 9 0 11 -5 11 -40 0z"/>
<path d="M1501 2748 c-1 -27 3 -48 7 -48 4 0 6 17 4 38 -5 58 -10 62 -11 10z"/>
<path d="M2083 2728 c-1 -23 2 -36 8 -32 5 3 16 0 24 -6 18 -15 45 -7 41 12
-5 24 -25 63 -25 51 -1 -17 -16 -16 -33 1 -12 11 -14 7 -15 -26z"/>
<path d="M1601 2713 c-1 -13 -5 -23 -10 -23 -5 0 -11 -10 -15 -22 -5 -18 -8
-20 -15 -10 -10 16 -42 13 -48 -4 -5 -14 88 -44 136 -44 26 0 32 -3 21 -10 -8
-5 -12 -10 -10 -12 16 -12 69 -30 104 -35 23 -3 65 -14 93 -25 60 -22 73 -18
73 20 0 21 -2 24 -10 12 -7 -11 -12 -12 -21 -3 -13 13 -4 33 17 33 15 0 17 12
8 48 -7 26 -27 28 -68 7 -37 -19 -75 -19 -115 1 -23 11 -45 14 -75 10 -23 -4
-50 -4 -60 0 -16 6 -14 10 11 30 21 17 24 23 11 24 -9 0 -19 6 -21 13 -3 6 -6
2 -6 -10z m39 -77 c0 -3 -4 -8 -10 -11 -5 -3 -10 -1 -10 4 0 6 5 11 10 11 6 0
10 -2 10 -4z m255 -26 c-3 -5 -13 -10 -21 -10 -8 0 -14 5 -14 10 0 6 9 10 21
10 11 0 17 -4 14 -10z m-55 -10 c0 -5 -7 -10 -15 -10 -8 0 -15 5 -15 10 0 6 7
10 15 10 8 0 15 -4 15 -10z m-56 -9 c3 -5 -1 -14 -9 -21 -13 -10 -15 -9 -15 9
0 21 14 28 24 12z"/>
<path d="M1840 2720 c0 -5 9 -10 21 -10 11 0 17 5 14 10 -3 6 -13 10 -21 10
-8 0 -14 -4 -14 -10z"/>
<path d="M2152 2678 c-7 -7 -12 -20 -12 -30 0 -26 -15 -22 -28 7 -14 31 -38
32 -53 3 -7 -13 -17 -26 -23 -30 -6 -4 1 -8 17 -8 30 0 38 -26 10 -37 -14 -5
-13 -8 7 -15 36 -13 8 -38 -40 -34 -29 2 -37 0 -36 -13 1 -10 -9 -17 -26 -19
-34 -4 -37 -22 -4 -22 13 0 29 -6 35 -14 12 -14 46 -11 69 7 6 5 12 6 12 1 0
-5 10 -10 23 -10 17 -1 22 4 24 25 0 14 -3 33 -8 42 -7 13 -3 18 15 23 16 4
25 15 29 36 4 18 13 30 22 30 13 0 14 4 4 23 -7 12 -12 23 -11 25 1 1 2 7 2
12 0 14 -13 13 -28 -2z m-108 -157 c3 -5 -1 -14 -8 -20 -16 -13 -32 2 -21 19
8 12 22 13 29 1z"/>
<path d="M2180 2566 c0 -9 -6 -15 -12 -13 -8 1 -14 -11 -16 -30 -2 -19 1 -33
7 -33 6 0 11 -5 11 -11 0 -5 -4 -8 -9 -4 -5 3 -12 1 -16 -5 -3 -6 0 -13 9 -16
8 -3 12 -12 9 -21 -5 -13 -7 -13 -15 1 -8 14 -13 15 -24 5 -11 -9 -17 -9 -29
1 -9 7 -18 10 -22 6 -8 -8 27 -47 38 -40 4 2 13 -5 19 -16 6 -11 15 -18 21
-15 5 4 9 -4 9 -15 0 -15 5 -20 14 -17 11 4 13 1 9 -11 -3 -9 -3 -14 2 -10 12
11 35 -11 29 -27 -3 -8 -2 -20 2 -26 5 -9 9 -7 14 7 6 15 9 12 18 -20 6 -22 9
-42 7 -47 -5 -8 20 -20 28 -13 2 3 -1 31 -8 64 -7 33 -10 71 -8 85 3 15 1 25
-6 25 -6 0 -11 -11 -11 -25 0 -14 -4 -25 -9 -25 -4 0 -6 12 -3 26 3 19 1 25
-6 20 -8 -5 -10 -2 -6 8 3 9 10 13 15 10 5 -3 9 5 9 18 0 13 -4 18 -8 12 -11
-17 -40 -24 -45 -11 -7 19 -6 32 4 30 5 -2 9 6 9 17 0 11 7 20 15 20 12 0 14
7 9 28 -9 33 -54 91 -54 68z"/>
<path d="M2788 2551 c-10 -3 -14 -11 -10 -16 10 -15 60 -17 68 -3 5 7 0 9 -14
6 -12 -4 -22 -1 -24 7 -2 7 -10 10 -20 6z"/>
<path d="M4010 2541 c0 -18 17 -20 36 -6 18 14 18 14 -8 15 -16 0 -28 -4 -28
-9z"/>
<path d="M3718 2493 c18 -2 45 -2 60 0 15 2 0 4 -33 4 -33 0 -45 -2 -27 -4z"/>
<path d="M3898 2493 c7 -3 16 -2 19 1 4 3 -2 6 -13 5 -11 0 -14 -3 -6 -6z"/>
<path d="M1444 2467 c-2 -7 -3 -351 -2 -766 l3 -753 30 -24 c46 -37 472 -334
479 -334 3 0 6 224 6 498 0 274 3 502 7 505 5 6 105 -250 178 -458 94 -264
203 -540 215 -540 8 0 59 125 141 345 126 338 177 477 219 593 12 31 26 55 31
52 5 -4 9 -209 9 -502 0 -441 2 -494 15 -489 9 3 123 77 255 163 l240 158 1
750 c1 738 1 806 -6 814 -2 2 -71 -22 -152 -52 -81 -31 -200 -74 -263 -97
-148 -55 -202 -82 -254 -130 -51 -47 -87 -111 -115 -205 -18 -59 -89 -385
-108 -492 -8 -49 -19 -40 -33 30 -107 527 -125 583 -213 664 -66 61 -114 83
-382 178 -82 30 -179 65 -214 79 -74 30 -80 31 -87 13z"/>
<path d="M4190 2148 c-13 -27 -28 -48 -32 -48 -5 0 -6 -5 -2 -11 4 -6 20 -8
39 -5 28 6 35 3 40 -14 8 -26 25 -26 25 0 0 11 -7 20 -15 20 -8 0 -15 4 -15 9
0 5 -10 7 -21 4 -19 -5 -20 -3 -14 18 4 13 12 27 17 30 6 4 8 15 6 25 -3 14
-10 7 -28 -28z"/>
<path d="M2263 2163 c8 -10 19 -35 22 -56 5 -25 10 -34 15 -27 6 9 10 8 14 -6
3 -10 3 -1 1 21 -3 22 -9 41 -15 43 -5 2 -10 10 -10 17 0 7 -7 16 -16 19 -25
10 -28 7 -11 -11z"/>
<path d="M2440 2162 c0 -12 -4 -22 -9 -22 -10 0 -21 -59 -13 -78 8 -22 22 7
22 46 0 20 4 31 10 27 6 -4 9 2 7 14 -4 29 -17 38 -17 13z"/>
<path d="M2310 2016 c0 -13 -2 -30 -3 -38 -2 -7 -2 -10 0 -5 10 16 23 -6 23
-37 0 -18 9 -45 20 -59 14 -18 19 -34 15 -50 -4 -14 -2 -28 3 -31 14 -8 31 42
30 89 0 22 3 49 7 59 6 13 5 17 -2 13 -19 -12 -73 26 -73 50 0 12 -4 25 -10
28 -6 3 -10 -5 -10 -19z m73 -121 c4 -8 2 -17 -3 -20 -6 -4 -10 3 -10 14 0 25
6 27 13 6z"/>
<path d="M2403 2009 c0 -35 13 -38 19 -5 3 14 0 27 -7 30 -7 2 -12 -7 -12 -25z"/>
<path d="M2405 1920 c-3 -5 -1 -10 4 -10 6 0 11 5 11 10 0 6 -2 10 -4 10 -3 0
-8 -4 -11 -10z"/>
<path d="M4460 1879 c0 -5 5 -7 10 -4 6 3 10 8 10 11 0 2 -4 4 -10 4 -5 0 -10
-5 -10 -11z"/>
<path d="M2336 1833 c-6 -14 -5 -15 5 -6 7 7 10 15 7 18 -3 3 -9 -2 -12 -12z"/>
<path d="M3540 1785 c0 -19 4 -35 8 -35 4 0 6 16 4 35 -2 19 -6 35 -8 35 -2 0
-4 -16 -4 -35z"/>
<path d="M3341 1470 l1 -45 10 34 c6 23 6 37 -1 44 -8 8 -11 -2 -10 -33z"/>
<path d="M591 1254 c-39 -30 -71 -61 -71 -68 0 -23 21 -35 44 -24 19 8 28 4
55 -21 39 -37 46 -37 90 -10 31 19 35 19 50 5 14 -15 10 -21 -39 -71 -54 -55
-54 -55 -35 -75 20 -19 20 -19 74 31 56 51 66 56 76 39 10 -15 35 -12 42 6 7
19 -83 114 -109 114 -10 0 -18 7 -18 16 0 18 -67 114 -80 114 -4 0 -40 -25
-79 -56z m99 -54 c0 -26 -32 -35 -47 -14 -11 15 -10 21 4 36 18 21 43 8 43
-22z"/>
<path d="M4921 1264 c-12 -15 -21 -31 -21 -35 0 -13 109 -159 119 -159 17 0
32 30 26 50 -9 27 21 63 45 55 20 -6 45 19 37 37 -4 13 -152 78 -174 78 -7 0
-21 -12 -32 -26z m83 -50 c17 -6 23 -34 8 -34 -5 0 -17 9 -27 20 -18 20 -11
25 19 14z"/>
<path d="M4804 1136 c-39 -39 -44 -76 -14 -106 27 -27 52 -25 90 6 22 19 34
24 42 16 15 -15 2 -30 -38 -47 -43 -18 -44 -48 -1 -53 22 -3 37 6 67 36 46 46
50 69 15 106 -30 32 -41 32 -88 1 -38 -27 -68 -26 -46 1 6 8 17 14 24 14 6 0
19 8 28 18 13 14 14 21 5 30 -21 21 -49 13 -84 -22z"/>
<path d="M4672 1017 c-12 -13 -22 -29 -22 -36 0 -15 58 -151 73 -169 14 -17
49 15 42 38 -8 24 28 53 55 45 22 -7 50 9 50 29 -1 12 -149 116 -166 116 -6 0
-20 -10 -32 -23z m71 -61 c21 -16 22 -36 2 -36 -12 0 -35 28 -35 44 0 10 14 6
33 -8z"/>
<path d="M941 900 c-45 -67 -52 -82 -41 -95 19 -23 33 -18 59 23 28 43 39 30
17 -22 -13 -32 -13 -37 0 -51 22 -22 39 -19 79 16 41 36 43 32 13 -21 -22 -37
-22 -40 -6 -57 10 -9 19 -15 22 -12 17 18 106 155 106 164 0 6 -14 19 -30 28
l-30 18 -48 -40 c-26 -22 -49 -36 -50 -31 -2 6 3 31 12 57 9 26 16 52 16 58 0
9 -49 45 -62 45 -2 0 -28 -36 -57 -80z"/>
<path d="M757 963 c-12 -12 -7 -41 7 -46 22 -9 41 19 26 38 -14 16 -23 19 -33
8z"/>
<path d="M4562 934 c-17 -11 -22 -25 -22 -56 l0 -41 -21 27 c-17 21 -24 24
-40 16 -10 -6 -19 -15 -19 -20 0 -17 104 -160 116 -160 6 0 17 7 24 15 10 12
9 20 -5 41 -17 27 -17 27 6 20 64 -18 75 -17 92 2 18 20 17 20 -35 40 l-53 20
-3 56 c-2 31 -6 56 -10 56 -4 0 -18 -7 -30 -16z"/>
<path d="M4348 803 c-27 -14 -48 -30 -48 -35 0 -13 92 -168 99 -168 4 0 16 6
27 14 15 12 17 17 7 27 -33 33 7 62 41 30 16 -15 25 -17 39 -10 24 14 21 33
-8 60 -13 13 -25 32 -25 42 0 10 -7 29 -16 42 -21 33 -56 32 -116 -2z m69 -70
c-16 -16 -18 -16 -34 0 -17 17 -17 19 2 33 17 12 21 12 34 -1 14 -13 13 -17
-2 -32z"/>
<path d="M1183 749 c-37 -39 -69 -74 -71 -79 -2 -5 6 -14 18 -20 16 -9 25 -8
36 1 21 17 64 -4 64 -31 0 -21 39 -44 52 -31 7 7 38 153 38 180 0 10 -15 24
-34 34 l-35 16 -68 -70z m73 -34 c-4 -14 -13 -25 -21 -25 -19 0 -19 10 1 38
19 28 29 22 20 -13z"/>
<path d="M4206 735 c-26 -13 -53 -28 -59 -34 -7 -7 3 -36 31 -95 23 -48 43
-86 46 -86 15 0 136 61 136 68 0 5 -6 15 -14 21 -11 10 -21 9 -46 -4 -32 -17
-66 -14 -55 5 4 6 22 17 42 25 64 27 27 49 -49 30 -43 -11 -34 11 13 35 28 15
39 26 35 36 -3 9 -6 18 -6 20 0 9 -27 1 -74 -21z"/>
<path d="M1365 708 c-7 -18 -23 -55 -35 -82 -23 -54 -21 -76 8 -76 12 0 24 12
32 30 10 24 17 29 34 24 35 -10 41 -22 29 -53 -12 -32 -2 -51 27 -51 15 0 80
138 80 173 0 28 -45 22 -58 -8 -13 -28 -29 -31 -56 -12 -16 11 -17 17 -6 36
15 29 6 51 -20 51 -14 0 -25 -11 -35 -32z"/>
<path d="M4028 658 c-32 -11 -58 -26 -58 -33 0 -27 62 -175 73 -175 25 0 38
17 32 41 -5 21 -1 26 30 38 46 16 62 49 45 91 -11 27 -46 61 -60 59 -3 0 -31
-10 -62 -21z m66 -55 c7 -17 -16 -43 -36 -43 -12 0 -21 28 -14 45 7 20 42 19
50 -2z"/>
<path d="M1587 608 c-82 -103 -91 -119 -76 -129 19 -12 43 -11 55 1 15 15 64
-8 64 -31 0 -15 19 -29 40 -29 9 0 14 30 25 142 l5 58 -36 15 c-20 8 -38 15
-40 15 -1 0 -18 -19 -37 -42z m44 -81 c-21 -21 -32 7 -13 33 l17 25 3 -24 c2
-13 -1 -28 -7 -34z"/>
<path d="M1740 528 c-35 -117 -35 -118 38 -142 55 -17 64 -18 72 -6 14 22 7
32 -27 44 -18 6 -35 14 -39 18 -4 5 1 35 11 67 20 65 16 91 -14 91 -15 0 -24
-15 -41 -72z"/>
<path d="M3796 581 c-3 -4 7 -48 22 -97 20 -65 33 -90 46 -92 34 -7 36 13 9
106 -24 81 -30 92 -49 92 -13 0 -25 -4 -28 -9z"/>
<path d="M3657 548 c-56 -15 -56 -18 -16 -171 8 -31 14 -38 32 -35 17 2 22 10
22 33 1 40 40 49 54 12 8 -19 15 -23 35 -20 30 6 33 28 10 62 -9 13 -17 40
-18 61 -4 68 -31 81 -119 58z m64 -54 c11 -14 10 -18 -6 -30 -26 -19 -32 -18
-40 7 -5 14 -2 25 6 30 19 12 25 11 40 -7z"/>
<path d="M1917 536 c-15 -15 -23 -39 -41 -119 -9 -39 28 -73 88 -82 58 -9 79
7 95 70 25 100 8 129 -80 141 -35 5 -49 2 -62 -10z m90 -94 c-5 -48 -18 -62
-49 -54 -18 4 -20 11 -15 50 5 48 18 62 49 54 18 -4 20 -11 15 -50z"/>
<path d="M3520 498 c0 -13 8 -58 17 -100 16 -68 21 -78 40 -78 32 0 35 11 18
87 -8 37 -18 78 -20 91 -4 15 -13 22 -30 22 -19 0 -25 -5 -25 -22z"/>
<path d="M2106 488 c-34 -160 -34 -178 -2 -178 22 0 26 6 32 48 11 77 21 82
34 16 16 -82 15 -80 52 -88 44 -9 53 5 68 105 11 68 11 82 -1 90 -23 15 -33 5
-46 -45 -19 -74 -19 -74 -33 -11 -14 66 -30 85 -72 85 -21 0 -29 -6 -32 -22z"/>
<path d="M3361 489 c-24 -5 -45 -10 -47 -12 -2 -1 4 -47 13 -101 l16 -97 41 6
c79 12 96 17 111 32 29 28 11 154 -25 173 -21 12 -47 11 -109 -1z m78 -53 c7
-8 11 -32 9 -53 -3 -33 -7 -38 -29 -41 -20 -2 -28 2 -33 20 -8 31 -8 73 1 81
11 12 40 8 52 -7z"/>
<path d="M2336 384 c-20 -47 -36 -90 -36 -94 0 -18 43 -23 55 -6 17 23 62 20
75 -4 6 -12 21 -20 36 -20 22 0 25 4 21 23 -3 12 -9 49 -13 82 -11 94 -17 105
-63 105 l-39 0 -36 -86z m84 -14 c0 -22 -16 -35 -25 -20 -9 14 4 52 16 45 5
-4 9 -15 9 -25z"/>
<path d="M3239 463 c-1 -5 0 -32 1 -62 2 -63 -7 -61 -40 8 -22 48 -26 51 -61
51 -21 0 -40 -4 -43 -8 -7 -11 5 -177 13 -191 4 -6 17 -8 29 -5 20 6 21 10 15
65 -3 32 -3 59 0 59 4 0 16 -19 28 -42 33 -66 44 -75 85 -70 l37 4 -7 67 c-3
36 -6 81 -6 99 0 27 -3 32 -25 32 -14 0 -26 -3 -26 -7z"/>
<path d="M2618 380 c-1 -38 -2 -82 -2 -97 -1 -23 4 -29 26 -31 26 -3 27 -1 30
50 l3 53 14 -48 c23 -82 70 -86 92 -9 l13 47 5 -50 c5 -45 8 -50 31 -50 l25 0
0 100 0 100 -37 3 -36 3 -23 -68 -23 -68 -19 68 -20 67 -38 0 -39 0 -2 -70z"/>
<path d="M2924 423 c-3 -16 -12 -53 -20 -84 -19 -79 -18 -99 6 -99 11 0 25 9
32 20 15 24 66 27 74 5 6 -14 45 -21 56 -9 3 3 -8 48 -25 100 l-31 94 -43 0
c-38 0 -43 -3 -49 -27z m66 -75 c0 -10 -7 -18 -15 -18 -16 0 -19 17 -9 45 5
13 8 14 15 3 5 -7 9 -21 9 -30z"/>
</g>
</svg>
